<svg width="40" height="30" viewBox="0 0 40 30" fill="none" xmlns="http://www.w3.org/2000/svg">
<path d="M0 2.5C0 1.11719 1.11719 0 2.5 0H32.5C33.8828 0 35 1.11719 35 2.5C35 3.88281 33.8828 5 32.5 5H2.5C1.11719 5 0 3.88281 0 2.5ZM5 15C5 13.6172 6.11719 12.5 7.5 12.5H37.5C38.8828 12.5 40 13.6172 40 15C40 16.3828 38.8828 17.5 37.5 17.5H7.5C6.11719 17.5 5 16.3828 5 15ZM35 27.5C35 28.8828 33.8828 30 32.5 30H2.5C1.11719 30 0 28.8828 0 27.5C0 26.1172 1.11719 25 2.5 25H32.5C33.8828 25 35 26.1172 35 27.5Z" fill="#F8FAFC"/>
</svg>
