<svg width="40" height="35" viewBox="0 0 40 35" fill="none" xmlns="http://www.w3.org/2000/svg">
<path d="M0 1.64062C0 0.731445 0.749411 0 1.68092 0H4.86767C6.40851 0 7.77426 0.875 8.41161 2.1875H37.1974C39.0394 2.1875 40.3841 3.89648 39.9009 5.63281L37.0293 16.0439C36.434 18.1904 34.4379 19.6875 32.1616 19.6875H11.9556L12.3338 21.6357C12.4878 22.4082 13.1812 22.9688 13.9867 22.9688H34.1787C35.1102 22.9688 35.8596 23.7002 35.8596 24.6094C35.8596 25.5186 35.1102 26.25 34.1787 26.25H13.9867C11.5633 26.25 9.4832 24.5684 9.03495 22.251L5.42097 3.72559C5.37194 3.46582 5.14082 3.28125 4.86767 3.28125H1.68092C0.749411 3.28125 0 2.5498 0 1.64062ZM8.96491 31.7188C8.96491 31.2878 9.05187 30.8612 9.22082 30.4631C9.38977 30.065 9.6374 29.7032 9.94957 29.3986C10.2617 29.0939 10.6324 28.8522 11.0402 28.6873C11.4481 28.5224 11.8853 28.4375 12.3268 28.4375C12.7682 28.4375 13.2054 28.5224 13.6133 28.6873C14.0212 28.8522 14.3918 29.0939 14.7039 29.3986C15.0161 29.7032 15.2637 30.065 15.4327 30.4631C15.6016 30.8612 15.6886 31.2878 15.6886 31.7188C15.6886 32.1497 15.6016 32.5763 15.4327 32.9744C15.2637 33.3725 15.0161 33.7343 14.7039 34.0389C14.3918 34.3436 14.0212 34.5853 13.6133 34.7502C13.2054 34.9151 12.7682 35 12.3268 35C11.8853 35 11.4481 34.9151 11.0402 34.7502C10.6324 34.5853 10.2617 34.3436 9.94957 34.0389C9.6374 33.7343 9.38977 33.3725 9.22082 32.9744C9.05187 32.5763 8.96491 32.1497 8.96491 31.7188ZM32.4978 28.4375C33.3894 28.4375 34.2445 28.7832 34.875 29.3986C35.5055 30.0139 35.8596 30.8485 35.8596 31.7188C35.8596 32.589 35.5055 33.4236 34.875 34.0389C34.2445 34.6543 33.3894 35 32.4978 35C31.6062 35 30.7511 34.6543 30.1206 34.0389C29.4902 33.4236 29.136 32.589 29.136 31.7188C29.136 30.8485 29.4902 30.0139 30.1206 29.3986C30.7511 28.7832 31.6062 28.4375 32.4978 28.4375Z" fill="#F8FAFC"/>
</svg>
