<svg width="40" height="40" viewBox="0 0 40 40" fill="none" xmlns="http://www.w3.org/2000/svg">
<path d="M32.5016 16.2476C32.5016 19.833 31.3375 23.145 29.3764 25.8322L39.2675 35.7291C40.2442 36.7056 40.2442 38.2913 39.2675 39.2677C38.2909 40.2441 36.7049 40.2441 35.7283 39.2677L25.8372 29.3707C23.1496 31.3392 19.8369 32.4952 16.2508 32.4952C7.27379 32.4952 0 25.2229 0 16.2476C0 7.27237 7.27379 0 16.2508 0C25.2278 0 32.5016 7.27237 32.5016 16.2476ZM16.2508 27.496C17.7282 27.496 19.1912 27.205 20.5562 26.6397C21.9212 26.0745 23.1614 25.2459 24.2061 24.2014C25.2508 23.1569 26.0796 21.9169 26.6449 20.5522C27.2103 19.1875 27.5013 17.7248 27.5013 16.2476C27.5013 14.7705 27.2103 13.3078 26.6449 11.9431C26.0796 10.5783 25.2508 9.33834 24.2061 8.29383C23.1614 7.24933 21.9212 6.42078 20.5562 5.8555C19.1912 5.29022 17.7282 4.99927 16.2508 4.99927C14.7734 4.99927 13.3104 5.29022 11.9454 5.8555C10.5804 6.42078 9.34016 7.24933 8.29545 8.29383C7.25074 9.33834 6.42203 10.5783 5.85664 11.9431C5.29125 13.3078 5.00024 14.7705 5.00024 16.2476C5.00024 17.7248 5.29125 19.1875 5.85664 20.5522C6.42203 21.9169 7.25074 23.1569 8.29545 24.2014C9.34016 25.2459 10.5804 26.0745 11.9454 26.6397C13.3104 27.205 14.7734 27.496 16.2508 27.496Z" fill="#F8FAFC"/>
</svg>
